<svg width="64" height="65" viewBox="0 0 64 65" fill="none" xmlns="http://www.w3.org/2000/svg">
<g id="instagram 1" clip-path="url(#clip0_114_6387)">
<g id="Layer 2">
<g id="Circle">
<g id="03.Instagram">
<path id="Background" d="M64 32.0703C64 14.3972 49.6731 0.0703125 32 0.0703125C14.3269 0.0703125 0 14.3972 0 32.0703C0 49.7434 14.3269 64.0703 32 64.0703C49.6731 64.0703 64 49.7434 64 32.0703Z" fill="url(#paint0_linear_114_6387)"/>
<g id="Group">
<path id="Shade" opacity="0.1" d="M56.0842 11.0177C51.419 19.5819 44.8211 28.4156 36.5769 36.6598C28.3326 44.904 19.499 51.4893 10.9474 56.1545C10.4112 55.6885 9.89053 55.2029 9.38527 54.6977C6.33119 51.7456 3.89541 48.2149 2.21995 44.3117C0.54449 40.4085 -0.337116 36.2107 -0.373462 31.9633C-0.409808 27.7158 0.399834 23.5036 2.00825 19.5723C3.61667 15.6409 5.99168 12.0691 8.99479 9.0652C11.9979 6.06125 15.569 3.68524 19.4999 2.07572C23.4308 0.466207 27.6428 -0.344611 31.8903 -0.30945C36.1377 -0.27429 40.3357 0.606144 44.2394 2.28051C48.1431 3.95489 51.6744 6.38968 54.6274 9.44294C55.1326 9.9482 55.6183 10.4731 56.0842 11.0177Z" fill="white"/>
<g id="Icon">
<path id="Vector" d="M39.579 15.2283H24.4211C21.9644 15.2283 19.6083 16.2042 17.8711 17.9414C16.1339 19.6786 15.158 22.0347 15.158 24.4914V39.6493C15.158 42.1061 16.1339 44.4622 17.8711 46.1994C19.6083 47.9365 21.9644 48.9125 24.4211 48.9125H39.579C42.0358 48.9125 44.3919 47.9365 46.1291 46.1994C47.8662 44.4622 48.8422 42.1061 48.8422 39.6493V24.4914C48.8422 22.0347 47.8662 19.6786 46.1291 17.9414C44.3919 16.2042 42.0358 15.2283 39.579 15.2283ZM45.8948 38.3188C45.8948 40.3467 45.0892 42.2916 43.6552 43.7256C42.2213 45.1595 40.2764 45.9651 38.2485 45.9651H25.7516C23.7237 45.9651 21.7788 45.1595 20.3449 43.7256C18.9109 42.2916 18.1053 40.3467 18.1053 38.3188V25.822C18.1053 23.794 18.9109 21.8492 20.3449 20.4152C21.7788 18.9812 23.7237 18.1756 25.7516 18.1756H38.2485C40.2764 18.1756 42.2213 18.9812 43.6552 20.4152C45.0892 21.8492 45.8948 23.794 45.8948 25.822V38.3188Z" fill="white"/>
<path id="Vector_2" d="M38.1433 25.9903L38.0633 25.9103L37.9959 25.843C36.4039 24.2565 34.2477 23.3661 32.0001 23.3672C30.8651 23.3749 29.7428 23.6062 28.6972 24.0478C27.6516 24.4894 26.7033 25.1327 25.9064 25.9409C25.1095 26.7491 24.4797 27.7064 24.0529 28.7582C23.6261 29.8099 23.4107 30.9354 23.4191 32.0703C23.4173 34.3737 24.3253 36.5846 25.9454 38.2219C26.7389 39.0251 27.6845 39.6622 28.727 40.096C29.7694 40.5297 30.8879 40.7515 32.017 40.7482C33.7106 40.7127 35.3573 40.1851 36.7562 39.2298C38.1552 38.2745 39.2459 36.9328 39.8954 35.3682C40.5448 33.8037 40.725 32.0839 40.4139 30.4187C40.1028 28.7535 39.3138 27.2149 38.1433 25.9903ZM32.0001 37.7798C30.8676 37.7957 29.756 37.4744 28.8066 36.8567C27.8572 36.2391 27.113 35.353 26.6685 34.3113C26.2241 33.2695 26.0996 32.1191 26.3108 31.0063C26.5219 29.8936 27.0593 28.8688 27.8545 28.0623C28.6497 27.2558 29.6668 26.704 30.7765 26.4771C31.8861 26.2503 33.0382 26.3586 34.0861 26.7883C35.1341 27.2179 36.0306 27.9496 36.6615 28.8902C37.2925 29.8307 37.6295 30.9377 37.6296 32.0703C37.6351 32.815 37.4939 33.5534 37.2139 34.2433C36.934 34.9333 36.5208 35.5614 35.998 36.0916C35.4752 36.6219 34.853 37.0439 34.167 37.3336C33.4811 37.6232 32.7447 37.7749 32.0001 37.7798Z" fill="white"/>
<path id="Vector_3" d="M43.1284 22.9672C43.1307 23.2374 43.0796 23.5054 42.9781 23.7558C42.8766 24.0062 42.7267 24.2341 42.5371 24.4266C42.3474 24.619 42.1216 24.7721 41.8727 24.8772C41.6237 24.9822 41.3565 25.0371 41.0863 25.0388C40.8184 25.0387 40.5532 24.9854 40.306 24.882C40.0588 24.7787 39.8346 24.6273 39.6463 24.4367C39.3611 24.1473 39.1671 23.7805 39.0883 23.3818C39.0096 22.9832 39.0495 22.5702 39.2033 22.194C39.3571 21.8179 39.6179 21.4952 39.9534 21.2659C40.2888 21.0366 40.6842 20.9107 41.0905 20.9041C41.5661 20.904 42.0266 21.0709 42.3916 21.3756L42.4337 21.4177C42.5016 21.473 42.5637 21.5351 42.619 21.603L42.6653 21.6535C42.9667 22.0248 43.1303 22.489 43.1284 22.9672Z" fill="white"/>
</g>
</g>
</g>
</g>
</g>
</g>
<defs>
<linearGradient id="paint0_linear_114_6387" x1="9.37263" y1="9.44294" x2="54.6274" y2="54.6977" gradientUnits="userSpaceOnUse">
<stop stop-color="#FAE100"/>
<stop offset="0.15" stop-color="#FCB720"/>
<stop offset="0.3" stop-color="#FF7950"/>
<stop offset="0.5" stop-color="#FF1C74"/>
<stop offset="1" stop-color="#6C1CD1"/>
</linearGradient>
<clipPath id="clip0_114_6387">
<rect width="64" height="64" fill="white" transform="translate(0 0.0703125)"/>
</clipPath>
</defs>
</svg>
