<svg width="64" height="65" viewBox="0 0 64 65" fill="none" xmlns="http://www.w3.org/2000/svg">
<g id="linkedin 1" clip-path="url(#clip0_114_6404)">
<g id="Layer 2">
<g id="10.linkedin">
<path id="background" d="M32 64.0703C49.6731 64.0703 64 49.7434 64 32.0703C64 14.3972 49.6731 0.0703125 32 0.0703125C14.3269 0.0703125 0 14.3972 0 32.0703C0 49.7434 14.3269 64.0703 32 64.0703Z" fill="#0B69C7"/>
<g id="icon">
<path id="Vector" d="M24.8421 20.4366C24.843 21.3014 24.5872 22.147 24.1073 22.8663C23.6274 23.5857 22.9449 24.1466 22.1461 24.4779C21.3473 24.8092 20.4682 24.8961 19.62 24.7276C18.7718 24.5591 17.9927 24.1428 17.3812 23.5313C16.7697 22.9198 16.3534 22.1406 16.1848 21.2925C16.0163 20.4443 16.1033 19.5651 16.4346 18.7664C16.7659 17.9676 17.3267 17.285 18.0461 16.8051C18.7655 16.3252 19.611 16.0695 20.4758 16.0703C21.6335 16.0714 22.7434 16.5318 23.562 17.3504C24.3806 18.169 24.841 19.279 24.8421 20.4366Z" fill="white"/>
<path id="Vector_2" d="M22.7747 26.6262H18.1768C17.5792 26.6262 17.0947 27.1107 17.0947 27.7083V46.9883C17.0947 47.586 17.5792 48.0704 18.1768 48.0704H22.7747C23.3724 48.0704 23.8568 47.586 23.8568 46.9883V27.7083C23.8568 27.1107 23.3724 26.6262 22.7747 26.6262Z" fill="white"/>
<path id="Vector_3" d="M47.8948 37.7419V47.0766C47.8948 47.3402 47.7901 47.5929 47.6038 47.7793C47.4174 47.9656 47.1647 48.0703 46.9011 48.0703H41.9664C41.7029 48.0703 41.4501 47.9656 41.2638 47.7793C41.0774 47.5929 40.9727 47.3402 40.9727 47.0766V38.0324C40.9727 36.6808 41.3643 32.1377 37.4443 32.1377C34.4043 32.1377 33.7853 35.2619 33.6548 36.664V47.0977C33.6493 47.3561 33.5434 47.6022 33.3594 47.7838C33.1755 47.9654 32.928 48.0682 32.6696 48.0703H27.8948C27.7642 48.0709 27.6347 48.0455 27.5139 47.9958C27.3931 47.9461 27.2833 47.8729 27.1909 47.7805C27.0986 47.6881 27.0254 47.5784 26.9756 47.4575C26.9259 47.3367 26.9006 47.2073 26.9011 47.0766V27.624C26.9006 27.4931 26.9259 27.3635 26.9756 27.2424C27.0252 27.1214 27.0984 27.0113 27.1907 26.9186C27.283 26.8259 27.3927 26.7523 27.5136 26.7021C27.6344 26.6519 27.764 26.6261 27.8948 26.6261H32.6696C32.802 26.6239 32.9336 26.648 33.0566 26.6972C33.1796 26.7463 33.2916 26.8195 33.3861 26.9123C33.4805 27.0052 33.5556 27.116 33.6068 27.2382C33.658 27.3604 33.6843 27.4915 33.6843 27.624V29.3082C34.8127 27.624 36.4885 26.3103 40.0548 26.3103C47.9411 26.3061 47.8948 33.6871 47.8948 37.7419Z" fill="white"/>
</g>
</g>
</g>
</g>
<defs>
<clipPath id="clip0_114_6404">
<rect width="64" height="64" fill="white" transform="translate(0 0.0703125)"/>
</clipPath>
</defs>
</svg>
