<svg width="64" height="65" viewBox="0 0 64 65" fill="none" xmlns="http://www.w3.org/2000/svg">
<g id="twitter 1" clip-path="url(#clip0_114_6399)">
<g id="Group">
<path id="Vector" d="M32 0.0703125C14.3275 0.0703125 0 14.3978 0 32.0703C0 49.7428 14.3275 64.0703 32 64.0703C49.6725 64.0703 64 49.7428 64 32.0703C64 14.3978 49.6725 0.0703125 32 0.0703125Z" fill="black"/>
<path id="Vector_2" d="M35.5008 29.1745L49.1996 13.2507H45.9534L34.0587 27.0771L24.5585 13.2507H13.6011L27.9673 34.1587L13.6011 50.8572H16.8474L29.4086 36.256L39.4415 50.8572H50.3989L35.4999 29.1745H35.5008ZM18.0171 15.6946H23.0033L45.9549 48.5245H40.9687L18.0171 15.6946Z" fill="white"/>
</g>
</g>
<defs>
<clipPath id="clip0_114_6399">
<rect width="64" height="64" fill="white" transform="translate(0 0.0703125)"/>
</clipPath>
</defs>
</svg>
