<svg width="24" height="25" viewBox="0 0 24 25" fill="none" xmlns="http://www.w3.org/2000/svg">
<rect width="24" height="25" fill="#1E1E1E"/>
<g id="Landing Page Design" clip-path="url(#clip0_110_2)">
<rect width="1600" height="7335" transform="translate(-1074 -6894)" fill="white"/>
<g id="Group 59">
<rect id="Rectangle 10" x="-1074" y="-167.93" width="1600" height="609" fill="#070211"/>
<g id="Group 43">
<g id="Group 42">
<g id="Group 41">
<g id="Frame" clip-path="url(#clip1_110_2)">
<path id="Vector" d="M19.5001 7.07033C18.6763 5.83732 17.5605 4.82698 16.2521 4.12914C14.9436 3.4313 13.483 3.06758 12.0001 3.07033C10.5198 3.06942 9.06209 3.43405 7.75652 4.13185C6.45095 4.82964 5.33787 5.83901 4.51611 7.07033" stroke="white" stroke-width="1.5" stroke-linecap="round" stroke-linejoin="round"/>
<path id="Vector_2" d="M11.5001 3.07031C10.7207 4.31892 10.1069 5.66351 9.67407 7.07031" stroke="white" stroke-width="1.5" stroke-linecap="round" stroke-linejoin="round"/>
<path id="Vector_3" d="M12.5 3.07031C13.2801 4.31881 13.8945 5.66341 14.328 7.07031" stroke="white" stroke-width="1.5" stroke-linecap="round" stroke-linejoin="round"/>
<path id="Vector_4" d="M19.5001 17.0703C18.6763 18.3033 17.5605 19.3137 16.2521 20.0115C14.9436 20.7093 13.483 21.0731 12.0001 21.0703C10.5198 21.0712 9.06209 20.7066 7.75652 20.0088C6.45095 19.311 5.33787 18.3016 4.51611 17.0703" stroke="white" stroke-width="1.5" stroke-linecap="round" stroke-linejoin="round"/>
<path id="Vector_5" d="M11.5001 21.0703C10.7207 19.8217 10.1069 18.4771 9.67407 17.0703" stroke="white" stroke-width="1.5" stroke-linecap="round" stroke-linejoin="round"/>
<path id="Vector_6" d="M12.5 21.0703C13.2801 19.8218 13.8945 18.4772 14.328 17.0703" stroke="white" stroke-width="1.5" stroke-linecap="round" stroke-linejoin="round"/>
<path id="Vector_7" d="M2 10.0703L3 14.0703L4.5 10.0703L6 14.0703L7 10.0703" stroke="white" stroke-width="1.5" stroke-linecap="round" stroke-linejoin="round"/>
<path id="Vector_8" d="M17 10.0703L18 14.0703L19.5 10.0703L21 14.0703L22 10.0703" stroke="white" stroke-width="1.5" stroke-linecap="round" stroke-linejoin="round"/>
<path id="Vector_9" d="M9.5 10.0703L10.5 14.0703L12 10.0703L13.5 14.0703L14.5 10.0703" stroke="white" stroke-width="1.5" stroke-linecap="round" stroke-linejoin="round"/>
</g>
</g>
</g>
</g>
</g>
</g>
<defs>
<clipPath id="clip0_110_2">
<rect width="1600" height="7335" fill="white" transform="translate(-1074 -6894)"/>
</clipPath>
<clipPath id="clip1_110_2">
<rect width="24" height="24" fill="white" transform="translate(0 0.0703125)"/>
</clipPath>
</defs>
</svg>
